<?xml version="1.0" standalone="no"?>
<!DOCTYPE svg PUBLIC "-//W3C//DTD SVG 20010904//EN"
 "http://www.w3.org/TR/2001/REC-SVG-20010904/DTD/svg10.dtd">
<svg version="1.0" xmlns="http://www.w3.org/2000/svg"
 width="1085.000000pt" height="1085.000000pt" viewBox="0 0 1085.000000 1085.000000"
 preserveAspectRatio="xMidYMid meet">
<metadata>
Created by potrace 1.14, written by Peter Selinger 2001-2017
</metadata>
<g transform="translate(0.000000,1085.000000) scale(0.100000,-0.100000)"
fill="#000000" stroke="none">
<path d="M0 5425 l0 -5425 5425 0 5425 0 0 470 0 470 -25 0 c-18 0 -25 5 -25
20 0 18 -7 20 -55 20 -42 0 -55 3 -55 15 0 10 -11 15 -35 15 -28 0 -35 4 -35
20 0 13 -7 20 -20 20 -18 0 -20 7 -20 70 0 63 2 70 20 70 19 0 20 7 20 110 0
103 -1 110 -20 110 -13 0 -20 7 -20 20 0 16 -7 20 -35 20 -24 0 -35 5 -35 15
0 8 -9 15 -20 15 -13 0 -20 7 -20 20 0 16 -7 20 -35 20 -28 0 -35 4 -35 20 0
16 -7 20 -35 20 -24 0 -35 5 -35 15 0 8 -9 15 -20 15 -13 0 -20 7 -20 20 0 16
-7 20 -35 20 -24 0 -35 5 -35 15 0 8 -7 15 -15 15 -8 0 -15 9 -15 20 0 13 -7
20 -20 20 -13 0 -20 7 -20 20 0 16 -7 20 -35 20 -24 0 -35 5 -35 15 0 8 -9 15
-20 15 -13 0 -20 7 -20 20 0 16 -7 20 -35 20 -28 0 -35 4 -35 20 0 20 -7 20
-4675 20 l-4675 0 0 70 0 70 4460 0 4460 0 0 35 0 35 90 0 c73 0 90 -3 90 -15
0 -12 14 -15 70 -15 63 0 70 -2 70 -20 0 -18 7 -20 70 -20 63 0 70 2 70 20 0
11 -7 20 -15 20 -8 0 -15 7 -15 15 0 8 -9 15 -20 15 -16 0 -20 7 -20 35 0 24
-5 35 -15 35 -11 0 -15 11 -15 40 0 33 -3 40 -20 40 -11 0 -20 7 -20 15 0 8
-9 15 -20 15 -17 0 -20 7 -20 40 0 29 -4 40 -15 40 -8 0 -15 7 -15 15 0 8 -9
15 -20 15 -13 0 -20 7 -20 20 0 11 -7 20 -15 20 -10 0 -15 11 -15 35 0 28 -4
35 -20 35 -13 0 -20 7 -20 20 0 13 -7 20 -20 20 -11 0 -20 7 -20 15 0 8 -7 15
-15 15 -8 0 -15 9 -15 20 0 13 -7 20 -20 20 -16 0 -20 7 -20 35 0 24 -5 35
-15 35 -8 0 -15 9 -15 20 0 13 -7 20 -20 20 -11 0 -20 7 -20 15 0 8 -9 15 -20
15 -13 0 -20 7 -20 20 0 11 -7 20 -15 20 -8 0 -15 9 -15 20 0 13 -7 20 -20 20
-16 0 -20 7 -20 35 0 28 -4 35 -20 35 -11 0 -20 7 -20 15 0 8 -7 15 -15 15 -8
0 -15 9 -15 20 0 13 -7 20 -20 20 -16 0 -20 7 -20 35 0 24 -5 35 -15 35 -8 0
-15 9 -15 20 0 13 -7 20 -20 20 -11 0 -20 7 -20 15 0 24 -16 18 -79 -29 -240
-176 -603 -267 -1015 -253 -288 10 -485 55 -690 158 -124 63 -193 114 -307
228 -115 116 -176 201 -250 349 -80 163 -123 125 341 296 221 81 403 146 404
144 1 -1 26 -47 56 -101 100 -183 233 -324 368 -388 217 -104 483 -59 553 95
25 56 24 148 -2 206 -56 124 -193 197 -659 351 -463 153 -612 227 -760 378
-88 90 -132 160 -171 273 -56 164 -64 409 -18 588 23 93 89 242 139 315 122
178 314 314 555 394 184 61 285 75 528 76 l207 0 0 23 c0 15 6 22 20 22 11 0
20 -7 20 -15 0 -8 9 -15 20 -15 11 0 20 -7 20 -15 0 -9 14 -17 38 -21 383 -66
674 -253 841 -541 49 -85 121 -276 108 -289 -3 -4 -179 -60 -389 -125 -417
-128 -384 -123 -408 -57 -9 27 -12 28 -85 28 -68 0 -75 2 -75 20 0 11 -7 20
-15 20 -12 0 -15 15 -15 75 0 60 3 75 15 75 11 0 15 -11 15 -40 0 -33 3 -40
20 -40 11 0 20 -7 20 -15 0 -8 9 -15 20 -15 13 0 20 -7 20 -20 0 -15 7 -20 26
-20 31 0 29 8 -19 89 -50 84 -129 161 -165 161 -24 0 -31 5 -34 22 -8 58 -248
100 -371 64 -103 -30 -166 -109 -175 -221 -8 -106 44 -191 159 -258 71 -41
185 -83 416 -151 658 -195 938 -398 1049 -761 26 -84 28 -102 28 -280 1 -186
-2 -210 -40 -342 -5 -17 -2 -23 10 -23 9 0 16 -7 16 -15 0 -8 9 -15 20 -15 11
0 20 7 20 15 0 8 7 15 15 15 8 0 15 -7 15 -15 0 -8 9 -15 20 -15 13 0 20 -7
20 -20 0 -11 7 -20 15 -20 8 0 15 -9 15 -20 0 -13 7 -20 20 -20 11 0 20 -7 20
-15 0 -8 9 -15 20 -15 13 0 20 -7 20 -20 0 -11 7 -20 15 -20 8 0 15 -7 15 -15
0 -10 11 -15 35 -15 28 0 35 -4 35 -20 0 -13 7 -20 20 -20 13 0 20 -7 20 -20
0 -13 7 -20 20 -20 16 0 20 -7 20 -35 0 -24 5 -35 15 -35 8 0 15 -9 15 -20 0
-16 7 -20 35 -20 24 0 35 -5 35 -15 0 -11 11 -15 40 -15 33 0 40 -3 40 -20 0
-11 7 -20 15 -20 8 0 15 -7 15 -15 0 -8 9 -15 20 -15 13 0 20 -7 20 -20 0 -13
7 -20 20 -20 13 0 20 -7 20 -20 0 -16 7 -20 35 -20 24 0 35 -5 35 -15 0 -8 7
-15 15 -15 8 0 15 -9 15 -20 0 -11 -7 -20 -15 -20 -8 0 -15 -7 -15 -15 0 -8 7
-15 15 -15 8 0 15 -9 15 -20 0 -13 7 -20 20 -20 13 0 20 -7 20 -20 0 -16 7
-20 35 -20 24 0 35 -5 35 -15 0 -10 11 -15 35 -15 28 0 35 -4 35 -20 0 -16 -7
-20 -35 -20 -28 0 -35 4 -35 20 0 16 -7 20 -35 20 -24 0 -35 5 -35 15 0 10
-11 15 -35 15 -28 0 -35 4 -35 20 0 18 -7 20 -55 20 -48 0 -55 2 -55 20 0 13
-7 20 -20 20 -11 0 -20 7 -20 15 0 12 -13 15 -55 15 -48 0 -55 2 -55 20 0 11
-7 20 -15 20 -8 0 -15 7 -15 15 0 10 -11 15 -35 15 -28 0 -35 4 -35 20 0 18
-7 20 -55 20 -48 0 -55 2 -55 20 0 13 -7 20 -20 20 -17 0 -20 7 -20 50 0 38
-4 50 -15 50 -8 0 -15 9 -15 20 0 13 -7 20 -20 20 -13 0 -20 7 -20 20 0 13 -7
20 -20 20 -11 0 -20 7 -20 15 0 8 -7 15 -15 15 -11 0 -15 11 -15 40 0 33 -3
40 -20 40 -11 0 -20 7 -20 15 0 8 -7 15 -15 15 -8 0 -15 9 -15 20 0 13 -7 20
-20 20 -16 0 -20 7 -20 35 0 28 -4 35 -20 35 -14 0 -20 7 -21 23 0 15 -7 7
-23 -28 -13 -28 -35 -69 -50 -93 -20 -32 -23 -42 -11 -42 8 0 15 -9 15 -20 0
-13 7 -20 20 -20 13 0 20 -7 20 -20 0 -11 7 -20 15 -20 8 0 15 -7 15 -15 0 -8
9 -15 20 -15 13 0 20 -7 20 -20 0 -13 -7 -20 -20 -20 -13 0 -20 -7 -20 -20 0
-13 7 -20 20 -20 16 0 20 -7 20 -35 0 -28 4 -35 20 -35 16 0 20 -7 20 -35 0
-24 5 -35 15 -35 8 0 15 -9 15 -20 0 -13 7 -20 20 -20 11 0 20 -7 20 -15 0 -8
7 -15 15 -15 10 0 15 -11 15 -35 0 -28 4 -35 20 -35 17 0 20 -7 20 -40 0 -39
1 -40 35 -40 24 0 35 -5 35 -15 0 -10 11 -15 35 -15 28 0 35 -4 35 -20 0 -13
7 -20 20 -20 19 0 20 7 20 90 0 83 1 90 20 90 18 0 20 -7 20 -55 0 -42 3 -55
15 -55 10 0 15 -11 15 -35 0 -28 4 -35 20 -35 13 0 20 -7 20 -20 0 -11 7 -20
15 -20 10 0 15 -11 15 -35 0 -34 1 -35 40 -35 39 0 40 1 40 35 0 24 5 35 15
35 11 0 15 11 15 40 0 33 3 40 20 40 13 0 20 -7 20 -20 0 -13 7 -20 20 -20 16
0 20 -7 20 -35 0 -24 5 -35 15 -35 10 0 15 -11 15 -35 0 -28 4 -35 20 -35 13
0 20 -7 20 -20 0 -11 7 -20 15 -20 8 0 15 -9 15 -20 0 -13 7 -20 20 -20 16 0
20 -7 20 -35 0 -28 4 -35 20 -35 13 0 20 7 20 20 0 17 7 20 50 20 43 0 50 -3
50 -20 0 -13 7 -20 20 -20 11 0 20 -7 20 -15 0 -13 21 -15 125 -15 118 0 125
-1 125 -20 0 -13 7 -20 20 -20 13 0 20 -7 20 -20 0 -15 7 -20 25 -20 l25 0 0
110 0 110 -25 0 c-18 0 -25 5 -25 20 0 16 -7 20 -35 20 -24 0 -35 5 -35 15 0
12 -13 15 -55 15 -48 0 -55 2 -55 20 0 13 -7 20 -20 20 -11 0 -20 7 -20 15 0
11 11 15 40 15 33 0 40 3 40 20 0 11 7 20 15 20 10 0 15 -11 15 -35 0 -33 2
-35 35 -35 28 0 35 -4 35 -20 0 -17 7 -20 45 -20 l45 0 0 443 c0 244 -3 505
-7 580 -5 124 -8 137 -25 137 -10 0 -18 7 -18 15 0 8 -9 15 -20 15 -13 0 -20
7 -20 20 0 11 -7 20 -15 20 -8 0 -15 9 -15 20 0 13 -7 20 -20 20 -11 0 -20 7
-20 15 0 8 9 15 20 15 13 0 20 7 20 20 0 13 -7 20 -20 20 -13 0 -20 7 -20 20
0 16 7 20 35 20 28 0 35 -4 35 -20 0 -13 7 -20 20 -20 13 0 20 -7 20 -20 0
-13 7 -20 19 -20 11 0 22 -8 24 -18 2 -9 5 1570 6 3511 l1 3527 -5425 0 -5425
0 0 -5425z m5270 4895 c0 -13 7 -20 20 -20 11 0 20 -7 20 -15 0 -11 -11 -15
-40 -15 -39 0 -40 1 -40 35 0 28 4 35 20 35 13 0 20 -7 20 -20z m2240 -525 c0
-28 -4 -35 -20 -35 -13 0 -20 7 -20 20 0 11 -7 20 -15 20 -8 0 -15 -9 -15 -20
0 -18 -7 -20 -75 -20 -68 0 -75 -2 -75 -20 0 -16 -7 -20 -35 -20 -24 0 -35 -5
-35 -15 0 -8 -7 -15 -15 -15 -8 0 -15 7 -15 15 0 8 7 15 15 15 8 0 15 9 15 20
0 16 7 20 35 20 28 0 35 4 35 20 0 17 7 20 40 20 29 0 40 4 40 15 0 12 14 15
70 15 l70 0 0 -35z m-360 -125 c0 -13 -7 -20 -20 -20 -11 0 -20 -7 -20 -15 0
-8 -7 -15 -15 -15 -8 0 -15 -9 -15 -20 0 -11 7 -20 15 -20 8 0 15 -9 15 -20 0
-11 -7 -20 -15 -20 -8 0 -15 -7 -15 -15 0 -8 -9 -15 -20 -15 -18 0 -20 7 -20
55 0 48 2 55 20 55 11 0 20 7 20 15 0 8 7 15 15 15 8 0 15 9 15 20 0 13 7 20
20 20 13 0 20 -7 20 -20z m-3360 -235 c0 -24 5 -35 15 -35 10 0 15 -11 15 -35
0 -28 4 -35 20 -35 13 0 20 -7 20 -20 0 -16 7 -20 35 -20 24 0 35 -5 35 -15 0
-8 9 -15 20 -15 17 0 20 -7 20 -40 0 -29 4 -40 15 -40 8 0 15 -7 15 -15 0 -8
9 -15 20 -15 17 0 20 -7 20 -40 0 -33 3 -40 20 -40 11 0 20 -7 20 -15 0 -8 7
-15 15 -15 10 0 15 -11 15 -35 0 -28 4 -35 20 -35 13 0 20 -7 20 -20 0 -13 7
-20 20 -20 13 0 20 -7 20 -20 0 -11 7 -20 15 -20 8 0 15 -7 15 -15 0 -10 11
-15 35 -15 28 0 35 -4 35 -20 0 -13 7 -20 20 -20 11 0 20 -7 20 -15 0 -8 9
-15 20 -15 13 0 20 -7 20 -20 0 -13 -7 -20 -20 -20 -13 0 -20 -7 -20 -20 0
-13 7 -20 20 -20 11 0 20 -7 20 -15 0 -12 -13 -15 -55 -15 -42 0 -55 3 -55 15
0 10 -11 15 -35 15 -28 0 -35 4 -35 20 0 13 -7 20 -20 20 -13 0 -20 7 -20 20
0 13 -7 20 -20 20 -16 0 -20 7 -20 35 0 24 -5 35 -15 35 -8 0 -15 7 -15 15 0
8 -9 15 -20 15 -13 0 -20 7 -20 20 0 13 -7 20 -20 20 -13 0 -20 7 -20 20 0 11
-7 20 -15 20 -10 0 -15 11 -15 35 0 28 -4 35 -20 35 -16 0 -20 7 -20 35 0 24
-5 35 -15 35 -10 0 -15 11 -15 35 0 28 -4 35 -20 35 -17 0 -20 7 -20 40 0 33
-3 40 -20 40 -16 0 -20 7 -20 35 0 24 -5 35 -15 35 -10 0 -15 11 -15 35 0 28
-4 35 -20 35 -16 0 -20 7 -20 35 0 28 4 35 20 35 16 0 20 -7 20 -35z m2930
-55 c0 -11 7 -20 15 -20 10 0 15 -11 15 -35 0 -28 4 -35 20 -35 11 0 20 -7 20
-15 0 -8 -9 -15 -20 -15 -11 0 -20 7 -20 15 0 8 -7 15 -15 15 -8 0 -15 9 -15
20 0 17 -7 20 -40 20 -29 0 -40 4 -40 15 0 8 -7 15 -15 15 -8 0 -15 9 -15 20
0 18 7 20 55 20 48 0 55 -2 55 -20z m280 -235 c0 -28 4 -35 20 -35 13 0 20 -7
20 -20 0 -13 7 -20 20 -20 11 0 20 -7 20 -15 0 -8 7 -15 15 -15 8 0 15 -9 15
-20 0 -13 7 -20 20 -20 11 0 20 -7 20 -15 0 -10 11 -15 35 -15 34 0 35 -1 35
-40 0 -33 3 -40 20 -40 11 0 20 -7 20 -15 0 -8 7 -15 15 -15 8 0 15 -9 15 -20
0 -13 7 -20 20 -20 11 0 20 -7 20 -15 0 -10 11 -15 35 -15 34 0 35 -1 35 -40
0 -33 3 -40 20 -40 11 0 20 -7 20 -15 0 -8 7 -15 15 -15 8 0 15 -9 15 -20 0
-17 7 -20 40 -20 33 0 40 -3 40 -20 0 -18 7 -20 55 -20 48 0 55 2 55 20 0 11
7 20 15 20 12 0 15 -14 15 -70 0 -63 2 -70 20 -70 13 0 20 -7 20 -20 0 -11 7
-20 15 -20 8 0 15 -9 15 -20 0 -13 7 -20 20 -20 11 0 20 -7 20 -15 0 -8 9 -15
20 -15 13 0 20 -7 20 -20 0 -11 7 -20 15 -20 8 0 15 -7 15 -15 0 -10 11 -15
35 -15 28 0 35 -4 35 -20 0 -13 7 -20 20 -20 16 0 20 -7 20 -35 0 -28 4 -35
20 -35 17 0 20 -7 20 -40 0 -29 4 -40 15 -40 8 0 15 -7 15 -15 0 -8 9 -15 20
-15 13 0 20 -7 20 -20 0 -13 7 -20 20 -20 11 0 20 -7 20 -15 0 -10 11 -15 35
-15 34 0 35 -1 35 -40 l0 -40 55 0 55 0 0 -35 c0 -24 5 -35 15 -35 10 0 15
-11 15 -35 0 -28 4 -35 20 -35 13 0 20 -7 20 -20 0 -11 7 -20 15 -20 8 0 15
-7 15 -15 0 -8 -7 -15 -15 -15 -8 0 -15 7 -15 15 0 8 -9 15 -20 15 -13 0 -20
7 -20 20 0 11 -7 20 -15 20 -8 0 -15 9 -15 20 0 13 -7 20 -20 20 -11 0 -20 7
-20 15 0 8 -9 15 -20 15 -13 0 -20 7 -20 20 0 16 -7 20 -35 20 -24 0 -35 5
-35 15 0 8 -7 15 -15 15 -8 0 -15 9 -15 20 0 13 -7 20 -20 20 -13 0 -20 7 -20
20 0 13 -7 20 -20 20 -11 0 -20 7 -20 15 0 8 -7 15 -15 15 -8 0 -15 9 -15 20
0 13 -7 20 -20 20 -11 0 -20 7 -20 15 0 8 -9 15 -20 15 -13 0 -20 7 -20 20 0
11 -7 20 -15 20 -8 0 -15 9 -15 20 0 16 -7 20 -35 20 -24 0 -35 5 -35 15 0 8
-9 15 -20 15 -13 0 -20 7 -20 20 0 13 -7 20 -20 20 -16 0 -20 -7 -20 -35 0
-24 -5 -35 -15 -35 -8 0 -15 -9 -15 -20 0 -11 7 -20 15 -20 10 0 15 -11 15
-35 0 -28 4 -35 20 -35 19 0 20 -7 20 -110 0 -103 1 -110 20 -110 19 0 20 7
20 125 0 104 2 125 15 125 10 0 15 -11 15 -35 0 -28 4 -35 20 -35 11 0 20 -7
20 -15 0 -8 -9 -15 -20 -15 -13 0 -20 -7 -20 -20 0 -13 7 -20 20 -20 13 0 20
-7 20 -20 0 -11 7 -20 15 -20 10 0 15 -11 15 -35 0 -24 -5 -35 -15 -35 -10 0
-15 -11 -15 -35 0 -24 5 -35 15 -35 10 0 15 -11 15 -35 0 -28 4 -35 20 -35 17
0 20 -7 20 -40 0 -33 3 -40 20 -40 11 0 20 -7 20 -15 0 -8 -9 -15 -20 -15 -13
0 -20 -7 -20 -20 0 -13 7 -20 20 -20 11 0 20 -7 20 -15 0 -8 7 -15 15 -15 8 0
15 -9 15 -20 0 -13 7 -20 20 -20 13 0 20 -7 20 -20 0 -16 7 -20 35 -20 24 0
35 -5 35 -15 0 -8 9 -15 20 -15 13 0 20 -7 20 -20 0 -11 7 -20 15 -20 8 0 15
9 15 20 0 11 -7 20 -15 20 -10 0 -15 11 -15 35 0 28 -4 35 -20 35 -16 0 -20 7
-20 35 0 24 -5 35 -15 35 -10 0 -15 11 -15 35 0 24 5 35 15 35 10 0 15 -11 15
-35 0 -28 4 -35 20 -35 16 0 20 -7 20 -35 0 -24 5 -35 15 -35 8 0 15 -9 15
-20 0 -13 7 -20 20 -20 11 0 20 -7 20 -15 0 -8 9 -15 20 -15 16 0 20 -7 20
-35 0 -24 5 -35 15 -35 8 0 15 -9 15 -20 0 -13 7 -20 20 -20 13 0 20 -7 20
-20 0 -11 7 -20 15 -20 8 0 15 -7 15 -15 0 -8 9 -15 20 -15 13 0 20 -7 20 -20
0 -13 7 -20 20 -20 13 0 20 -7 20 -20 0 -11 7 -20 15 -20 8 0 15 -7 15 -15 0
-8 -7 -15 -15 -15 -10 0 -15 -11 -15 -35 0 -24 5 -35 15 -35 8 0 15 -9 15 -20
0 -11 -7 -20 -15 -20 -8 0 -15 9 -15 20 0 13 -7 20 -20 20 -11 0 -20 7 -20 15
0 8 -9 15 -20 15 -13 0 -20 7 -20 20 0 11 -7 20 -15 20 -8 0 -15 7 -15 15 0 8
-9 15 -20 15 -13 0 -20 7 -20 20 0 11 -7 20 -15 20 -10 0 -15 11 -15 35 0 28
-4 35 -20 35 -13 0 -20 7 -20 20 0 13 -7 20 -20 20 -13 0 -20 7 -20 20 0 16
-7 20 -35 20 -24 0 -35 5 -35 15 0 10 -11 15 -35 15 -28 0 -35 4 -35 20 0 13
-7 20 -20 20 -11 0 -20 7 -20 15 0 8 -7 15 -15 15 -8 0 -15 9 -15 20 0 13 -7
20 -20 20 -13 0 -20 7 -20 20 0 16 -7 20 -35 20 -24 0 -35 5 -35 15 0 8 -9 15
-20 15 -13 0 -20 7 -20 20 0 16 -7 20 -35 20 -33 0 -35 -2 -35 -35 0 -28 4
-35 20 -35 19 0 20 -7 20 -110 0 -91 3 -110 15 -110 12 0 15 -15 15 -75 0 -68
2 -75 20 -75 17 0 20 -7 20 -50 0 -38 4 -50 15 -50 12 0 15 -13 15 -55 0 -48
2 -55 20 -55 13 0 20 -7 20 -20 0 -13 7 -20 20 -20 16 0 20 -7 20 -35 0 -24 5
-35 15 -35 10 0 15 -11 15 -35 0 -28 4 -35 20 -35 17 0 20 -7 20 -40 0 -33 3
-40 20 -40 11 0 20 -7 20 -15 0 -8 7 -15 15 -15 8 0 15 -9 15 -20 0 -13 7 -20
20 -20 11 0 20 -7 20 -15 0 -8 7 -15 15 -15 8 0 15 -9 15 -20 0 -13 7 -20 20
-20 13 0 20 -7 20 -20 0 -19 7 -20 90 -20 73 0 90 -3 90 -15 0 -8 -9 -15 -20
-15 -13 0 -20 -7 -20 -20 0 -19 -7 -20 -105 -20 -98 0 -105 1 -105 20 0 13 -7
20 -20 20 -11 0 -20 7 -20 15 0 8 -7 15 -15 15 -8 0 -15 9 -15 20 0 13 -7 20
-20 20 -13 0 -20 7 -20 20 0 13 -7 20 -20 20 -16 0 -20 7 -20 35 0 24 -5 35
-15 35 -8 0 -15 7 -15 15 0 8 -9 15 -20 15 -13 0 -20 7 -20 20 0 13 -7 20 -20
20 -16 0 -20 -7 -20 -35 0 -28 4 -35 20 -35 13 0 20 -7 20 -20 0 -13 7 -20 20
-20 16 0 20 -7 20 -35 0 -28 -4 -35 -20 -35 -16 0 -20 7 -20 35 0 28 -4 35
-20 35 -13 0 -20 7 -20 20 0 11 -7 20 -15 20 -10 0 -15 11 -15 35 0 28 -4 35
-20 35 -13 0 -20 7 -20 20 0 11 -7 20 -15 20 -8 0 -15 7 -15 15 0 8 -9 15 -20
15 -13 0 -20 7 -20 20 0 13 -7 20 -20 20 -13 0 -20 -7 -20 -20 0 -11 -7 -20
-15 -20 -11 0 -15 11 -15 40 0 33 -3 40 -20 40 -16 0 -20 7 -20 35 0 24 -5 35
-15 35 -10 0 -15 11 -15 35 0 28 -4 35 -20 35 -16 0 -20 7 -20 35 0 28 4 35
20 35 11 0 20 -7 20 -15 0 -12 14 -15 70 -15 63 0 70 -2 70 -20 0 -13 7 -20
20 -20 13 0 20 -7 20 -20 0 -11 7 -20 15 -20 11 0 15 11 15 40 0 29 -4 40 -15
40 -11 0 -15 12 -15 50 0 43 -3 50 -20 50 -19 0 -20 7 -20 185 0 178 -1 185
-20 185 -18 0 -20 7 -20 70 0 56 -3 70 -15 70 -8 0 -15 9 -15 20 0 13 -7 20
-20 20 -11 0 -20 7 -20 15 0 10 -11 15 -35 15 -28 0 -35 4 -35 20 0 16 -7 20
-35 20 -28 0 -35 4 -35 20 0 13 -7 20 -20 20 -11 0 -20 7 -20 15 0 8 -9 15
-20 15 -13 0 -20 7 -20 20 0 16 -7 20 -35 20 -24 0 -35 5 -35 15 0 8 -7 15
-15 15 -8 0 -15 9 -15 20 0 17 -7 20 -40 20 -33 0 -40 3 -40 20 0 16 -7 20
-35 20 -24 0 -35 5 -35 15 0 10 -11 15 -35 15 -28 0 -35 4 -35 20 0 19 -7 20
-125 20 -104 0 -125 2 -125 15 0 8 -9 15 -20 15 -17 0 -20 7 -20 40 l0 40 -70
0 c-56 0 -70 3 -70 15 0 13 -39 15 -290 15 -251 0 -290 -2 -290 -15 0 -13 -23
-15 -145 -15 -122 0 -145 2 -145 15 0 12 -19 15 -110 15 -103 0 -110 1 -110
20 0 16 -7 20 -35 20 -28 0 -35 4 -35 20 0 18 -7 20 -55 20 -42 0 -55 3 -55
15 0 10 -11 15 -35 15 -28 0 -35 4 -35 20 0 16 -7 20 -35 20 -24 0 -35 5 -35
15 0 12 -13 15 -55 15 -48 0 -55 2 -55 20 0 16 -7 20 -35 20 -28 0 -35 4 -35
20 0 18 -7 20 -55 20 -42 0 -55 3 -55 15 0 11 -11 15 -40 15 -33 0 -40 3 -40
20 0 16 -7 20 -35 20 -24 0 -35 5 -35 15 0 8 -7 15 -15 15 -8 0 -15 9 -15 20
0 13 -7 20 -20 20 -13 0 -20 7 -20 20 0 13 7 20 20 20 13 0 20 -7 20 -20 0
-19 7 -20 125 -20 118 0 125 -1 125 -20 0 -13 7 -20 20 -20 13 0 20 7 20 20 0
11 7 20 15 20 8 0 15 -9 15 -20 0 -16 7 -20 35 -20 24 0 35 -5 35 -15 0 -11
11 -15 40 -15 33 0 40 -3 40 -20 0 -17 7 -20 50 -20 43 0 50 3 50 20 0 11 -7
20 -15 20 -8 0 -15 7 -15 15 0 10 -11 15 -35 15 -28 0 -35 4 -35 20 0 13 -7
20 -20 20 -13 0 -20 7 -20 20 0 13 -7 20 -20 20 -11 0 -20 7 -20 15 0 10 -11
15 -35 15 -28 0 -35 4 -35 20 0 11 -7 20 -15 20 -8 0 -15 9 -15 20 0 13 -7 20
-20 20 -11 0 -20 7 -20 15 0 10 11 15 35 15 28 0 35 4 35 20 0 18 7 20 55 20
42 0 55 3 55 15 0 8 9 15 20 15 11 0 20 -7 20 -15 0 -10 11 -15 35 -15 24 0
35 5 35 15 0 12 19 15 110 15 103 0 110 1 110 20 0 17 7 20 50 20 43 0 50 3
50 20 0 18 7 20 75 20 60 0 75 3 75 15 0 10 11 15 35 15 28 0 35 4 35 20 0 16
7 20 35 20 24 0 35 5 35 15 0 11 11 15 40 15 33 0 40 3 40 20 0 17 7 20 50 20
43 0 50 3 50 20 0 17 7 20 40 20 33 0 40 -3 40 -20 0 -13 -7 -20 -20 -20 -13
0 -20 -7 -20 -20 0 -16 -7 -20 -35 -20 -24 0 -35 -5 -35 -15 0 -10 -11 -15
-35 -15 -28 0 -35 -4 -35 -20 0 -13 -7 -20 -20 -20 -11 0 -20 -7 -20 -15 0 -8
-9 -15 -20 -15 -13 0 -20 -7 -20 -20 0 -16 -7 -20 -35 -20 -33 0 -35 -2 -35
-35 0 -28 4 -35 20 -35 13 0 20 -7 20 -20 0 -18 7 -20 70 -20 l70 0 0 -55 0
-55 -55 0 c-42 0 -55 -3 -55 -15 0 -10 -11 -15 -35 -15 -28 0 -35 -4 -35 -20
0 -16 -7 -20 -35 -20 -33 0 -35 -2 -35 -35 0 -33 -2 -35 -35 -35 -33 0 -35 -2
-35 -35 0 -33 2 -35 35 -35 24 0 35 5 35 15 0 12 13 15 55 15 48 0 55 2 55 20
0 11 7 20 15 20 10 0 15 11 15 35 0 34 1 35 40 35 33 0 40 3 40 20 0 11 7 20
15 20 8 0 15 7 15 15 0 12 13 15 55 15 48 0 55 2 55 20 0 16 7 20 35 20 28 0
35 4 35 20 0 16 7 20 35 20 28 0 35 -4 35 -20 0 -11 -7 -20 -15 -20 -12 0 -15
-13 -15 -55 l0 -55 55 0 c48 0 55 -2 55 -20 0 -13 -7 -20 -20 -20 -11 0 -20
-7 -20 -15 0 -8 -9 -15 -20 -15 -13 0 -20 -7 -20 -20 0 -13 7 -20 20 -20 13 0
20 7 20 20 0 18 7 20 55 20 42 0 55 3 55 15 0 8 9 15 20 15 11 0 20 -7 20 -15
0 -12 14 -15 70 -15 56 0 70 3 70 15 0 10 11 15 35 15 28 0 35 4 35 20 0 16 7
20 35 20 28 0 35 4 35 20 0 13 7 20 20 20 13 0 20 -7 20 -20 0 -13 -7 -20 -20
-20 -16 0 -20 -7 -20 -35 0 -33 -2 -35 -35 -35 -28 0 -35 -4 -35 -20 0 -11 -7
-20 -15 -20 -8 0 -15 -7 -15 -15 0 -10 11 -15 35 -15 28 0 35 -4 35 -20 0 -16
7 -20 35 -20 28 0 35 4 35 20 0 18 7 20 70 20 l70 0 0 50 c0 43 3 50 20 50 13
0 20 7 20 20 0 13 -7 20 -20 20 -13 0 -20 7 -20 20 0 11 -7 20 -15 20 -8 0
-15 7 -15 15 0 8 -9 15 -20 15 -17 0 -20 7 -20 40 0 39 1 40 35 40 24 0 35 5
35 15 0 8 9 15 20 15 11 0 20 -7 20 -15 0 -8 -9 -15 -20 -15 -13 0 -20 -7 -20
-20 0 -13 7 -20 20 -20 13 0 20 -7 20 -20 0 -13 7 -20 20 -20 16 0 20 -7 20
-35 0 -33 2 -35 35 -35 28 0 35 -4 35 -20 0 -13 7 -20 20 -20 11 0 20 -7 20
-15 0 -8 7 -15 15 -15 8 0 15 -9 15 -20 0 -13 7 -20 20 -20 11 0 20 -7 20 -15
0 -8 7 -15 15 -15 8 0 15 -9 15 -20 0 -13 7 -20 20 -20 13 0 20 -7 20 -20 0
-13 7 -20 20 -20 11 0 20 -7 20 -15 0 -11 12 -15 50 -15 43 0 50 -3 50 -20 0
-18 7 -20 55 -20 l55 0 0 -90 c0 -73 -3 -90 -15 -90 -8 0 -15 -9 -15 -20 0
-11 7 -20 15 -20 8 0 15 9 15 20 0 13 7 20 20 20 13 0 20 -7 20 -20 0 -13 7
-20 20 -20 11 0 20 -7 20 -15 0 -8 7 -15 15 -15 12 0 15 17 15 90 l0 90 -35 0
c-28 0 -35 4 -35 20 0 16 7 20 35 20 33 0 35 2 35 35 0 24 -5 35 -15 35 -8 0
-15 7 -15 15 0 8 -9 15 -20 15 -13 0 -20 7 -20 20 0 13 -7 20 -20 20 -13 0
-20 7 -20 20 0 11 -7 20 -15 20 -8 0 -15 7 -15 15 0 8 -9 15 -20 15 -13 0 -20
7 -20 20 0 13 -7 20 -20 20 -11 0 -20 7 -20 15 0 8 -7 15 -15 15 -8 0 -15 9
-15 20 0 13 -7 20 -20 20 -13 0 -20 7 -20 20 0 11 -7 20 -15 20 -8 0 -15 7
-15 15 0 11 -11 15 -40 15 -33 0 -40 3 -40 20 0 11 -7 20 -15 20 -8 0 -15 9
-15 20 0 13 -7 20 -20 20 -11 0 -20 7 -20 15 0 8 -7 15 -15 15 -8 0 -15 9 -15
20 0 13 -7 20 -20 20 -11 0 -20 7 -20 15 0 8 -9 15 -20 15 -13 0 -20 7 -20 20
0 11 -7 20 -15 20 -8 0 -15 9 -15 20 0 13 -7 20 -20 20 -11 0 -20 7 -20 15 0
8 -9 15 -20 15 -13 0 -20 7 -20 20 0 11 -7 20 -15 20 -8 0 -15 7 -15 15 0 8
-9 15 -20 15 -13 0 -20 7 -20 20 0 11 -7 20 -15 20 -8 0 -15 9 -15 20 0 13 -7
20 -20 20 -11 0 -20 7 -20 15 0 12 14 15 70 15 l70 0 0 -35z m400 -140 l0 -35
-55 0 c-42 0 -55 3 -55 15 0 8 9 15 20 15 13 0 20 7 20 20 0 16 7 20 35 20 33
0 35 -2 35 -35z m-2960 -275 c0 -16 7 -20 35 -20 24 0 35 -5 35 -15 0 -10 -11
-15 -35 -15 -24 0 -35 5 -35 15 0 8 -9 15 -20 15 -13 0 -20 7 -20 20 0 13 7
20 20 20 13 0 20 -7 20 -20z m4440 -775 c0 -28 4 -35 20 -35 13 0 20 -7 20
-20 0 -13 7 -20 20 -20 11 0 20 -7 20 -15 0 -8 7 -15 15 -15 8 0 15 -9 15 -20
0 -11 -7 -20 -15 -20 -8 0 -15 9 -15 20 0 13 -7 20 -20 20 -11 0 -20 7 -20 15
0 8 -9 15 -20 15 -13 0 -20 7 -20 20 0 11 -7 20 -15 20 -8 0 -15 7 -15 15 0 8
-9 15 -20 15 -13 0 -20 7 -20 20 0 16 7 20 35 20 33 0 35 -2 35 -35z m-2677
-50 c271 -57 397 -336 306 -678 -21 -79 -162 -369 -372 -762 l-74 -140 -192
-3 c-105 -1 -191 -1 -191 1 0 1 86 166 190 366 105 201 190 365 190 366 0 1
-25 5 -56 8 -127 13 -258 109 -315 231 -80 172 -54 358 70 489 112 118 264
160 444 122z m2867 -280 c0 -24 5 -35 15 -35 10 0 15 -11 15 -35 0 -28 4 -35
20 -35 16 0 20 -7 20 -35 0 -24 5 -35 15 -35 8 0 15 -9 15 -20 0 -13 7 -20 20
-20 16 0 20 -7 20 -35 0 -28 4 -35 20 -35 16 0 20 -7 20 -35 0 -24 5 -35 15
-35 8 0 15 -9 15 -20 0 -11 -7 -20 -15 -20 -10 0 -15 -11 -15 -35 0 -24 5 -35
15 -35 10 0 15 -11 15 -35 0 -28 4 -35 20 -35 16 0 20 7 20 35 0 24 5 35 15
35 8 0 15 -9 15 -20 0 -13 7 -20 20 -20 16 0 20 -7 20 -35 0 -28 4 -35 20 -35
13 0 20 -7 20 -20 0 -11 7 -20 15 -20 10 0 15 -11 15 -35 0 -28 4 -35 20 -35
16 0 20 -7 20 -35 0 -28 4 -35 20 -35 13 0 20 -7 20 -20 0 -11 7 -20 15 -20 8
0 15 -7 15 -15 0 -8 -7 -15 -15 -15 -8 0 -15 7 -15 15 0 8 -9 15 -20 15 -13 0
-20 7 -20 20 0 16 -7 20 -35 20 -28 0 -35 4 -35 20 0 13 -7 20 -20 20 -11 0
-20 7 -20 15 0 8 -9 15 -20 15 -13 0 -20 7 -20 20 0 13 7 20 20 20 11 0 20 7
20 15 0 8 -9 15 -20 15 -11 0 -20 -7 -20 -15 0 -10 -11 -15 -35 -15 -24 0 -35
5 -35 15 0 10 -11 15 -35 15 -28 0 -35 4 -35 20 0 13 -7 20 -20 20 -13 0 -20
7 -20 20 0 11 -7 20 -15 20 -8 0 -15 7 -15 15 0 10 -11 15 -35 15 -28 0 -35 4
-35 20 0 13 -7 20 -20 20 -16 0 -20 7 -20 35 0 28 -4 35 -20 35 -13 0 -20 7
-20 20 0 13 7 20 20 20 16 0 20 7 20 35 0 28 4 35 20 35 16 0 20 7 20 35 0 28
-4 35 -20 35 -13 0 -20 7 -20 20 0 13 7 20 20 20 18 0 20 7 20 55 0 48 -2 55
-20 55 -17 0 -20 7 -20 50 0 43 3 50 20 50 16 0 20 -7 20 -35z m-6255 -1192
c374 -807 433 -940 492 -1100 34 -91 53 -125 53 -92 0 25 137 357 464 1129
l345 815 545 3 545 2 -53 -112 c-29 -62 -353 -735 -720 -1495 l-666 -1382 0
-716 0 -715 -530 0 -530 0 0 713 0 712 -720 1494 c-396 821 -720 1495 -720
1497 0 2 258 4 573 4 l572 -1 350 -756z m6255 562 c0 -8 7 -15 15 -15 8 0 15
-9 15 -20 0 -16 7 -20 35 -20 24 0 35 -5 35 -15 0 -8 9 -15 20 -15 13 0 20 -7
20 -20 0 -13 -7 -20 -20 -20 -13 0 -20 7 -20 20 0 16 -7 20 -35 20 -24 0 -35
5 -35 15 0 8 -7 15 -15 15 -8 0 -15 9 -15 20 0 13 -7 20 -20 20 -11 0 -20 7
-20 15 0 8 9 15 20 15 11 0 20 -7 20 -15z m-470 -35 c0 -11 7 -20 15 -20 8 0
15 -7 15 -15 0 -8 9 -15 20 -15 13 0 20 -7 20 -20 0 -13 -7 -20 -20 -20 -13 0
-20 7 -20 20 0 11 -7 20 -15 20 -8 0 -15 7 -15 15 0 8 -9 15 -20 15 -13 0 -20
7 -20 20 0 13 7 20 20 20 13 0 20 -7 20 -20z m-800 -200 c0 -33 3 -40 20 -40
16 0 20 -7 20 -35 0 -24 5 -35 15 -35 10 0 15 -11 15 -35 0 -24 -5 -35 -15
-35 -8 0 -15 9 -15 20 0 13 -7 20 -20 20 -17 0 -20 7 -20 50 0 43 -3 50 -20
50 -17 0 -20 7 -20 40 0 33 3 40 20 40 17 0 20 -7 20 -40z m1190 -55 c0 -8 9
-15 20 -15 13 0 20 -7 20 -20 0 -13 -7 -20 -20 -20 -13 0 -20 7 -20 20 0 11
-7 20 -15 20 -8 0 -15 7 -15 15 0 8 7 15 15 15 8 0 15 -7 15 -15z m-70 -180
c0 -8 9 -15 20 -15 13 0 20 -7 20 -20 0 -11 7 -20 15 -20 8 0 15 -7 15 -15 0
-8 9 -15 20 -15 13 0 20 -7 20 -20 0 -16 7 -20 35 -20 28 0 35 -4 35 -20 0
-13 7 -20 20 -20 11 0 20 -7 20 -15 0 -8 7 -15 15 -15 8 0 15 -9 15 -20 0 -13
7 -20 20 -20 11 0 20 -7 20 -15 0 -8 9 -15 20 -15 13 0 20 -7 20 -20 0 -11 7
-20 15 -20 8 0 15 -9 15 -20 0 -13 7 -20 20 -20 11 0 20 -7 20 -15 0 -8 7 -15
15 -15 8 0 15 -9 15 -20 0 -11 -7 -20 -15 -20 -8 0 -15 9 -15 20 0 13 -7 20
-20 20 -11 0 -20 7 -20 15 0 8 -7 15 -15 15 -8 0 -15 9 -15 20 0 13 -7 20 -20
20 -13 0 -20 7 -20 20 0 13 -7 20 -20 20 -11 0 -20 7 -20 15 0 8 -7 15 -15 15
-8 0 -15 9 -15 20 0 13 -7 20 -20 20 -11 0 -20 7 -20 15 0 10 -11 15 -35 15
-28 0 -35 4 -35 20 0 13 -7 20 -20 20 -13 0 -20 7 -20 20 0 11 -7 20 -15 20
-8 0 -15 7 -15 15 0 8 -9 15 -20 15 -13 0 -20 7 -20 20 0 13 -7 20 -20 20 -11
0 -20 7 -20 15 0 8 9 15 20 15 11 0 20 -7 20 -15z m1410 0 c0 -8 9 -15 20 -15
16 0 20 -7 20 -35 0 -24 5 -35 15 -35 8 0 15 -9 15 -20 0 -13 7 -20 20 -20 16
0 20 -7 20 -35 0 -24 5 -35 15 -35 8 0 15 -9 15 -20 0 -13 7 -20 20 -20 11 0
20 -7 20 -15 0 -8 9 -15 20 -15 17 0 20 -7 20 -40 0 -29 4 -40 15 -40 8 0 15
-7 15 -15 0 -8 9 -15 20 -15 13 0 20 -7 20 -20 0 -13 7 -20 20 -20 13 0 20 -7
20 -20 0 -11 7 -20 15 -20 8 0 15 -7 15 -15 0 -8 9 -15 20 -15 13 0 20 -7 20
-20 0 -11 7 -20 15 -20 8 0 15 -7 15 -15 0 -8 9 -15 20 -15 13 0 20 -7 20 -20
0 -13 7 -20 20 -20 13 0 20 -7 20 -20 0 -17 -7 -20 -40 -20 -33 0 -40 3 -40
20 0 11 -7 20 -15 20 -8 0 -15 9 -15 20 0 13 -7 20 -20 20 -11 0 -20 7 -20 15
0 8 -7 15 -15 15 -8 0 -15 9 -15 20 0 17 -7 20 -40 20 -29 0 -40 4 -40 15 0 8
-7 15 -15 15 -8 0 -15 9 -15 20 0 13 -7 20 -20 20 -13 0 -20 7 -20 20 0 13 -7
20 -20 20 -16 0 -20 7 -20 35 0 24 -5 35 -15 35 -8 0 -15 9 -15 20 0 13 -7 20
-20 20 -11 0 -20 7 -20 15 0 8 -7 15 -15 15 -8 0 -15 9 -15 20 0 17 -7 20 -40
20 l-40 0 0 105 c0 98 1 105 20 105 11 0 20 -7 20 -15z m-2240 -70 c0 -10 11
-15 35 -15 28 0 35 -4 35 -20 0 -16 7 -20 35 -20 28 0 35 -4 35 -20 0 -17 7
-20 40 -20 33 0 40 3 40 20 0 16 7 20 35 20 28 0 35 -4 35 -20 0 -11 7 -20 15
-20 8 0 15 -7 15 -15 0 -8 -7 -15 -15 -15 -8 0 -15 -9 -15 -20 0 -16 -7 -20
-35 -20 -24 0 -35 -5 -35 -15 0 -11 12 -15 50 -15 43 0 50 -3 50 -20 0 -11 -7
-20 -15 -20 -8 0 -15 -9 -15 -20 0 -18 -7 -20 -55 -20 -48 0 -55 2 -55 20 0
16 -7 20 -35 20 -28 0 -35 4 -35 20 0 13 -7 20 -20 20 -11 0 -20 7 -20 15 0 8
-7 15 -15 15 -8 0 -15 9 -15 20 0 17 -7 20 -40 20 -29 0 -40 4 -40 15 0 8 -7
15 -15 15 -8 0 -15 9 -15 20 0 16 7 20 35 20 28 0 35 4 35 20 0 13 -7 20 -20
20 -11 0 -20 7 -20 15 0 8 9 15 20 15 11 0 20 -7 20 -15z m760 -110 c0 -8 -9
-15 -20 -15 -11 0 -20 7 -20 15 0 8 9 15 20 15 11 0 20 -7 20 -15z m1840 -70
c0 -8 9 -15 20 -15 13 0 20 -7 20 -20 0 -11 7 -20 15 -20 8 0 15 -9 15 -20 0
-13 7 -20 20 -20 11 0 20 -7 20 -15 0 -8 9 -15 20 -15 13 0 20 -7 20 -20 0
-13 -7 -20 -20 -20 -13 0 -20 7 -20 20 0 13 -7 20 -20 20 -11 0 -20 7 -20 15
0 8 -7 15 -15 15 -8 0 -15 9 -15 20 0 13 -7 20 -20 20 -13 0 -20 7 -20 20 0
11 -7 20 -15 20 -8 0 -15 7 -15 15 0 8 7 15 15 15 8 0 15 -7 15 -15z m-1050
-870 c0 -8 9 -15 20 -15 13 0 20 -7 20 -20 0 -13 -7 -20 -20 -20 -13 0 -20 7
-20 20 0 11 -7 20 -15 20 -8 0 -15 7 -15 15 0 8 7 15 15 15 8 0 15 -7 15 -15z
m940 0 c0 -8 9 -15 20 -15 13 0 20 -7 20 -20 0 -16 7 -20 35 -20 24 0 35 -5
35 -15 0 -8 9 -15 20 -15 13 0 20 -7 20 -20 0 -11 7 -20 15 -20 8 0 15 -9 15
-20 0 -13 7 -20 20 -20 11 0 20 -7 20 -15 0 -8 -9 -15 -20 -15 -11 0 -20 7
-20 15 0 8 -7 15 -15 15 -8 0 -15 9 -15 20 0 16 -7 20 -35 20 -28 0 -35 4 -35
20 0 13 -7 20 -20 20 -11 0 -20 7 -20 15 0 8 -9 15 -20 15 -13 0 -20 7 -20 20
0 11 -7 20 -15 20 -8 0 -15 7 -15 15 0 8 7 15 15 15 8 0 15 -7 15 -15z m-830
-70 c0 -8 9 -15 20 -15 13 0 20 -7 20 -20 0 -13 -7 -20 -20 -20 -13 0 -20 7
-20 20 0 11 -7 20 -15 20 -8 0 -15 7 -15 15 0 8 7 15 15 15 8 0 15 -7 15 -15z
m150 -110 c0 -8 7 -15 15 -15 8 0 15 -9 15 -20 0 -11 -7 -20 -15 -20 -8 0 -15
9 -15 20 0 13 -7 20 -20 20 -11 0 -20 7 -20 15 0 8 9 15 20 15 11 0 20 -7 20
-15z m100 -75 c0 -11 -7 -20 -15 -20 -8 0 -15 9 -15 20 0 11 7 20 15 20 8 0
15 -9 15 -20z m-4440 -610 c0 -13 7 -20 20 -20 13 0 20 -7 20 -20 0 -11 7 -20
15 -20 10 0 15 -11 15 -35 0 -28 4 -35 20 -35 11 0 20 -7 20 -15 0 -8 -9 -15
-20 -15 -11 0 -20 7 -20 15 0 8 -7 15 -15 15 -8 0 -15 9 -15 20 0 13 -7 20
-20 20 -16 0 -20 7 -20 35 0 28 -4 35 -20 35 -13 0 -20 7 -20 20 0 13 7 20 20
20 13 0 20 -7 20 -20z m220 -290 c0 -11 7 -20 15 -20 8 0 15 -9 15 -20 0 -11
-7 -20 -15 -20 -8 0 -15 9 -15 20 0 13 -7 20 -20 20 -13 0 -20 7 -20 20 0 13
7 20 20 20 13 0 20 -7 20 -20z m4080 -1395 c0 -28 -4 -35 -20 -35 -16 0 -20 7
-20 35 0 28 4 35 20 35 16 0 20 -7 20 -35z m650 -235 c0 -13 -7 -20 -20 -20
-13 0 -20 7 -20 20 0 13 7 20 20 20 13 0 20 -7 20 -20z"/>
<path d="M7040 8550 c0 -43 3 -50 20 -50 17 0 20 -7 20 -40 0 -29 4 -40 15
-40 8 0 15 -7 15 -15 0 -8 9 -15 20 -15 13 0 20 -7 20 -20 0 -13 7 -20 20 -20
11 0 20 -7 20 -15 0 -8 7 -15 15 -15 8 0 15 7 15 15 0 10 11 15 35 15 33 0 35
2 35 35 0 24 -5 35 -15 35 -8 0 -15 9 -15 20 0 13 -7 20 -20 20 -13 0 -20 7
-20 20 0 11 -7 20 -15 20 -8 0 -15 7 -15 15 0 8 -9 15 -20 15 -13 0 -20 7 -20
20 0 13 -7 20 -20 20 -11 0 -20 7 -20 15 0 10 -11 15 -35 15 l-35 0 0 -50z"/>
<path d="M6430 8335 c0 -10 11 -15 35 -15 24 0 35 5 35 15 0 10 -11 15 -35 15
-24 0 -35 -5 -35 -15z"/>
<path d="M7290 8335 c0 -8 -7 -15 -15 -15 -8 0 -15 -9 -15 -20 0 -16 7 -20 35
-20 28 0 35 -4 35 -20 0 -13 7 -20 20 -20 11 0 20 -7 20 -15 0 -10 11 -15 35
-15 24 0 35 5 35 15 0 8 -9 15 -20 15 -13 0 -20 7 -20 20 0 11 -7 20 -15 20
-8 0 -15 9 -15 20 0 13 -7 20 -20 20 -11 0 -20 7 -20 15 0 8 -9 15 -20 15 -11
0 -20 -7 -20 -15z"/>
<path d="M9540 3420 c0 -11 7 -20 15 -20 8 0 15 9 15 20 0 11 -7 20 -15 20 -8
0 -15 -9 -15 -20z"/>
</g>
</svg>
