<?xml version="1.0" standalone="no"?>
<!DOCTYPE svg PUBLIC "-//W3C//DTD SVG 20010904//EN"
 "http://www.w3.org/TR/2001/REC-SVG-20010904/DTD/svg10.dtd">
<svg version="1.0" xmlns="http://www.w3.org/2000/svg"
 width="1084.000000pt" height="1084.000000pt" viewBox="0 0 1084.000000 1084.000000"
 preserveAspectRatio="xMidYMid meet">
<metadata>
Created by potrace 1.14, written by Peter Selinger 2001-2017
</metadata>
<g transform="translate(0.000000,1084.000000) scale(0.100000,-0.100000)"
fill="#000000" stroke="none">
<path d="M6740 10785 l54 -55 305 0 305 0 -54 55 -54 55 -305 0 -305 0 54 -55z"/>
<path d="M6356 10580 c18 -26 29 -59 32 -93 l4 -52 656 -657 c638 -639 658
-658 695 -658 41 0 101 -22 129 -47 10 -9 18 -12 18 -7 0 11 -1542 1554 -1553
1554 -4 0 5 -18 19 -40z"/>
<path d="M5477 10289 c17 -27 28 -58 31 -93 l4 -53 909 -909 908 -908 46 -2
c27 -2 66 -14 92 -29 25 -14 48 -25 52 -25 3 0 -458 464 -1024 1030 -566 567
-1033 1030 -1038 1030 -4 0 5 -18 20 -41z"/>
<path d="M3914 6956 c-3 -8 -4 -27 -2 -43 3 -25 7 -28 37 -28 43 0 60 23 43
59 -9 20 -19 26 -42 26 -17 0 -33 -6 -36 -14z m54 -33 c-2 -10 -10 -18 -18
-18 -8 0 -16 8 -18 18 -2 12 3 17 18 17 15 0 20 -5 18 -17z"/>
<path d="M7020 6942 c0 -11 7 -22 15 -26 8 -3 15 -11 15 -19 0 -18 -160 -47
-183 -33 -12 8 -20 7 -29 -2 -11 -11 -9 -17 9 -32 19 -15 29 -16 68 -8 40 9
48 8 60 -9 12 -16 10 -22 -18 -50 -17 -18 -57 -52 -89 -75 -55 -40 -69 -60
-50 -72 13 -8 81 41 150 108 66 64 71 76 46 97 -14 12 -13 14 7 21 12 5 23 7
23 6 1 -2 0 -45 -2 -95 l-4 -92 -29 15 c-28 14 -49 12 -49 -6 0 -4 15 -17 34
-28 21 -12 33 -27 33 -38 -1 -10 6 -20 15 -22 22 -4 26 13 35 158 l8 115 60 0
c47 0 60 4 63 17 4 19 -49 31 -98 22 -31 -7 -33 -6 -27 18 5 19 2 27 -11 31
-9 2 -25 8 -34 12 -14 5 -18 2 -18 -13z"/>
<path d="M3796 6923 c-4 -10 -1 -20 9 -25 9 -5 15 -23 15 -43 0 -37 -13 -46
-81 -49 -46 -2 -56 -10 -39 -31 10 -12 10 -16 -2 -20 -8 -3 -15 -19 -15 -38 0
-18 -3 -42 -7 -53 -6 -15 -3 -23 9 -28 21 -8 49 56 41 95 -5 25 -2 28 39 38
24 6 45 11 47 11 2 0 1 -24 0 -54 -4 -51 -5 -54 -29 -53 -35 3 -40 -17 -8 -31
15 -7 22 -17 19 -25 -3 -9 3 -16 15 -20 26 -6 32 10 38 110 6 89 9 93 81 93
26 0 32 4 32 21 0 20 -4 21 -54 16 l-54 -5 5 35 c5 30 2 39 -18 54 -30 23 -35
23 -43 2z"/>
<path d="M4816 6932 c-14 -13 -4 -32 19 -38 l25 -6 0 -144 c0 -121 2 -144 15
-144 12 0 15 17 15 90 l0 90 33 0 c17 0 47 -9 66 -21 27 -16 36 -18 42 -7 5 7
9 16 9 20 0 12 -87 48 -118 48 -32 0 -32 0 -32 50 0 28 -1 50 -3 50 -1 0 -16
4 -34 9 -17 5 -34 7 -37 3z"/>
<path d="M6493 6925 c-3 -9 2 -22 12 -29 17 -12 17 -20 6 -100 -6 -48 -21
-115 -31 -149 -24 -76 -24 -77 -1 -77 15 0 23 15 40 78 11 42 25 117 31 165
10 86 10 89 -12 107 -28 24 -37 24 -45 5z"/>
<path d="M5415 6884 c-54 -19 -74 -22 -88 -14 -10 6 -22 8 -27 5 -18 -11 -11
-31 15 -45 21 -11 34 -10 100 15 42 15 79 25 82 22 10 -11 -66 -104 -144 -177
-56 -52 -73 -74 -65 -82 23 -23 145 86 217 193 16 24 36 48 42 52 21 13 15 33
-12 45 -34 15 -37 15 -120 -14z"/>
<path d="M6374 6899 c-3 -6 -1 -16 5 -22 6 -6 11 -37 11 -69 0 -43 4 -58 14
-58 8 0 17 7 20 16 11 28 6 120 -6 132 -15 15 -35 15 -44 1z"/>
<path d="M5956 6883 c-4 -9 1 -21 11 -29 21 -15 17 -17 -64 -31 -32 -6 -58 -6
-68 0 -22 12 -39 -11 -22 -31 8 -10 25 -13 54 -9 79 9 63 -34 -40 -110 -38
-28 -45 -38 -36 -49 14 -17 49 5 127 80 l52 50 0 -47 c0 -44 -1 -47 -19 -37
-27 14 -41 13 -41 -5 0 -9 11 -21 25 -27 14 -6 25 -20 25 -30 0 -13 6 -18 18
-16 18 3 29 61 31 167 l1 54 50 -5 c43 -4 50 -3 50 13 0 20 -47 34 -79 24 -15
-4 -20 -1 -23 16 -4 28 -44 45 -52 22z m24 -99 c0 -14 -3 -14 -15 -4 -8 7 -15
14 -15 16 0 2 7 4 15 4 8 0 15 -7 15 -16z"/>
<path d="M4190 6790 c0 -5 5 -21 12 -35 9 -20 17 -25 37 -21 14 3 78 8 141 11
132 7 150 11 150 31 0 17 -27 17 -180 4 -87 -7 -107 -6 -116 6 -13 16 -44 19
-44 4z"/>
<path d="M3880 6760 c0 -12 98 -110 110 -110 22 0 20 24 -5 55 -35 46 -105 83
-105 55z"/>
<path d="M8069 6183 c-108 -53 -336 -311 -480 -543 -113 -182 -228 -452 -280
-659 -77 -303 -35 -478 124 -511 91 -19 208 6 315 65 l45 25 42 -39 c71 -65
154 -77 265 -38 36 13 88 38 115 55 l50 31 35 -34 c45 -44 77 -55 153 -55 68
0 138 25 235 82 68 40 248 215 321 313 66 89 148 254 161 324 19 101 -19 168
-102 178 -23 3 -53 15 -66 27 -20 18 -36 21 -100 21 -66 0 -87 -5 -146 -33
-38 -18 -96 -52 -130 -76 -80 -57 -213 -196 -261 -270 -39 -61 -88 -172 -100
-224 -8 -36 -93 -121 -154 -151 -28 -15 -56 -21 -84 -19 -75 5 -70 20 132 368
189 326 194 339 142 391 -39 39 -82 38 -147 -2 -62 -39 -184 -158 -184 -180 0
-9 9 -28 20 -42 11 -14 20 -28 20 -32 0 -4 -29 -55 -64 -114 -35 -58 -82 -140
-105 -182 -48 -89 -118 -159 -194 -194 -56 -27 -82 -30 -120 -16 -43 17 -67
51 -67 97 0 79 11 101 97 201 355 409 646 818 724 1016 47 118 35 198 -35 231
-51 24 -113 20 -177 -11z m41 -173 c0 -43 -93 -202 -243 -415 -110 -156 -320
-436 -324 -431 -6 6 43 129 89 223 67 139 287 455 407 586 57 61 71 69 71 37z
m793 -760 c3 -11 17 -24 31 -30 36 -13 33 -35 -14 -127 -52 -100 -165 -248
-243 -318 -70 -63 -193 -130 -220 -119 -41 15 -33 113 18 210 85 163 209 293
358 375 62 34 63 34 70 9z"/>
<path d="M6492 6179 c-32 -13 -64 -34 -83 -57 -47 -56 -269 -402 -477 -744
-103 -169 -193 -308 -201 -308 -8 0 -44 -9 -80 -20 -54 -16 -76 -29 -120 -74
-53 -54 -53 -55 -47 -100 5 -28 15 -51 27 -59 18 -13 16 -16 -32 -57 -83 -70
-159 -111 -199 -108 -34 3 -35 4 -38 50 -4 62 30 142 162 384 112 205 253 446
268 455 4 3 75 11 156 18 168 14 215 30 220 73 2 21 -7 38 -36 70 l-39 42 -82
-2 c-44 -1 -81 0 -81 2 0 3 23 41 50 85 28 44 50 90 50 101 0 25 -35 40 -95
40 -57 0 -93 -30 -174 -149 l-60 -88 -136 -6 c-158 -7 -196 -22 -253 -96 -70
-92 -21 -130 146 -111 52 6 97 9 99 6 2 -2 -42 -80 -97 -172 -110 -182 -244
-445 -274 -534 -10 -30 -20 -89 -23 -130 -4 -64 -1 -81 19 -120 27 -53 71 -85
138 -99 58 -13 137 -1 185 28 l32 19 -54 -97 c-86 -151 -112 -205 -149 -316
-51 -153 -46 -232 18 -270 111 -65 291 34 573 319 155 155 260 285 317 391 91
166 106 248 65 338 l-25 55 91 23 c124 30 129 33 125 76 -3 34 -7 38 -53 54
-66 23 -104 23 -231 -2 -58 -11 -115 -19 -126 -17 -20 3 63 141 501 827 150
236 164 262 155 286 -8 21 -68 18 -132 -6z m-514 -1339 c63 -93 -25 -280 -245
-525 -115 -127 -311 -295 -345 -295 -39 0 62 207 280 580 143 244 151 256 188
267 64 20 95 13 122 -27z"/>
<path d="M2860 6125 c-357 -51 -642 -185 -751 -354 -53 -81 -35 -200 35 -247
78 -50 296 20 296 96 0 27 -1 28 -52 26 -47 -1 -53 1 -56 20 -8 60 260 196
531 270 229 62 488 32 584 -69 41 -42 54 -93 38 -140 -50 -145 -313 -341 -526
-392 -78 -18 -169 -19 -192 -2 -19 14 -20 12 214 368 84 128 129 205 129 222
0 27 0 27 -77 27 -59 0 -86 -5 -109 -19 -75 -46 -747 -1041 -878 -1298 -29
-58 -33 -95 -12 -112 21 -17 145 -17 180 0 22 10 81 97 240 351 l211 337 25
-24 c106 -101 327 -82 593 51 195 99 372 268 436 418 30 68 41 153 29 209 -21
99 -162 206 -333 253 -82 23 -422 28 -555 9z"/>
<path d="M8425 5804 c-89 -46 -144 -171 -101 -230 22 -29 92 -26 142 7 82 55
130 173 89 219 -22 25 -87 27 -130 4z"/>
<path d="M0 5425 l0 -65 67 0 67 0 -64 65 c-35 36 -66 65 -67 65 -2 0 -3 -29
-3 -65z"/>
<path d="M4647 5428 c-73 -20 -80 -29 -455 -669 -110 -186 -114 -209 -49 -234
88 -33 97 -27 231 140 115 143 446 488 513 533 l31 22 -29 -52 c-54 -98 -33
-198 42 -198 17 0 38 4 48 10 20 10 112 145 165 242 59 107 46 186 -33 208
-98 26 -239 -40 -389 -184 l-43 -41 35 59 c41 69 59 117 54 148 -2 19 -10 23
-43 25 -22 1 -57 -3 -78 -9z"/>
<path d="M3905 5412 c-144 -50 -331 -207 -435 -366 -77 -118 -127 -281 -117
-387 6 -70 26 -110 74 -146 34 -26 43 -28 127 -28 85 0 96 2 167 38 241 121
530 483 556 696 11 95 -38 161 -121 161 -20 0 -36 4 -36 10 0 19 -60 40 -112
40 -29 -1 -76 -8 -103 -18z m103 -167 c7 -14 20 -25 31 -25 27 0 30 -18 14
-65 -48 -139 -250 -384 -377 -459 -74 -43 -103 -49 -128 -24 -17 17 -19 28
-14 66 16 113 154 321 279 420 56 44 163 112 178 112 3 0 11 -11 17 -25z"/>
<path d="M6885 5409 c-169 -59 -384 -259 -477 -444 -72 -141 -91 -306 -46
-392 65 -127 253 -124 443 7 160 110 358 357 424 530 35 91 42 180 15 218 -20
28 -65 52 -100 52 -15 0 -38 10 -51 22 -34 32 -128 35 -208 7z m107 -161 c2
-14 12 -24 28 -28 35 -8 36 -30 1 -103 -92 -192 -294 -406 -428 -452 -60 -21
-76 -6 -71 65 11 153 206 408 385 503 37 20 71 37 75 37 4 0 8 -10 10 -22z"/>
<path d="M165 3829 c22 -32 37 -68 41 -100 l7 -49 66 0 66 0 -100 100 c-55 55
-103 100 -107 100 -3 0 9 -23 27 -51z"/>
<path d="M9964 3398 c75 -102 56 -237 -41 -298 -24 -15 -59 -31 -78 -34 -41
-8 -109 8 -146 35 -54 38 -42 17 36 -61 l80 -80 305 0 305 0 -230 230 c-208
209 -277 270 -231 208z"/>
<path d="M0 2495 l0 -55 57 0 57 0 -54 55 c-30 30 -56 55 -57 55 -2 0 -3 -25
-3 -55z"/>
<path d="M10410 1781 c0 -5 7 -14 15 -21 22 -18 45 -106 38 -143 -9 -48 -39
-102 -69 -126 l-27 -21 184 0 184 0 -160 160 c-88 88 -161 160 -162 160 -2 0
-3 -4 -3 -9z"/>
<path d="M9530 1498 c0 -4 11 -23 24 -43 105 -155 -67 -362 -241 -290 -21 9
-45 23 -55 32 -10 9 -20 14 -23 12 -2 -3 33 -42 78 -87 l83 -82 297 2 297 3
-230 230 c-126 126 -230 227 -230 223z"/>
<path d="M10120 1490 c0 -6 7 -13 15 -17 24 -9 27 1 5 15 -13 8 -20 8 -20 2z"/>
</g>
</svg>
